<?xml version="1.0" encoding="utf-8"?>
<!-- Generator: Adobe Illustrator 18.1.0, SVG Export Plug-In . SVG Version: 6.00 Build 0)  -->
<svg version="1.1" id="Camada_1" xmlns="http://www.w3.org/2000/svg" xmlns:xlink="http://www.w3.org/1999/xlink" x="0px" y="0px"
	 viewBox="0 0 83 83" style="enable-background:new 0 0 83 83;" xml:space="preserve">
<style type="text/css">
	.st0{fill:#FFFFFF;}
	.st1{clip-path:url(#SVGID_2_);}
	.st2{fill:#CD8C54;}
	.st3{fill:none;stroke:#CD8C54;stroke-miterlimit:10;}
	.st4{fill:#CD8C54;stroke:#CD8C54;stroke-miterlimit:10;}
	.st5{opacity:0.65;}
	.st6{fill:#8E623B;}
</style>
<circle class="st0" cx="42.132" cy="42.298" r="40"/>
<g>
	<defs>
		<path id="SVGID_1_" d="M82.132,42.298c0,22.091-17.909,40-40,40s-40-17.909-40-40s17.909-40,40-40S82.132,20.207,82.132,42.298z"
			/>
	</defs>
	<clipPath id="SVGID_2_">
		<use xlink:href="#SVGID_1_"  style="overflow:visible;"/>
	</clipPath>
	<g class="st1">
		
			<image style="overflow:visible;opacity:0.71;" width="700" height="505" xlink:href="9C59C1B9.png"  transform="matrix(0.24 0 0 0.24 -39.1402 -15.1008)">
		</image>
		<g>
			<path class="st2" d="M-34.64-9.601v108h155v-108H-34.64z M42.132,82.298c-22.091,0-40-17.909-40-40s17.909-40,40-40
				s40,17.909,40,40S64.223,82.298,42.132,82.298z"/>
			<path class="st3" d="M-34.64-9.601v108h155v-108H-34.64z M42.132,82.298c-22.091,0-40-17.909-40-40s17.909-40,40-40
				s40,17.909,40,40S64.223,82.298,42.132,82.298z"/>
		</g>
	</g>
</g>
<path class="st4" d="M42.132,10.899c-17.673,0-32,14.327-32,32s14.327,32,32,32s32-14.327,32-32S59.805,10.899,42.132,10.899z
	 M62.132,30.899v24v4c0,2.209-1.791,4-4,4h-32c-2.209,0-4-1.791-4-4v-4v-24v-4c0-2.209,1.791-4,4-4h32c2.209,0,4,1.791,4,4V30.899z"
	/>
<g>
	<g class="st5">
		<path d="M59.132,23.899h-32c-2.209,0-4,1.791-4,4v4v24v4c0,2.209,1.791,4,4,4h32c2.209,0,4-1.791,4-4v-4v-24v-4
			C63.132,25.69,61.341,23.899,59.132,23.899z M39.132,57.899h-12v-1h12V57.899z M39.132,55.899h-12v-1h12V55.899z M39.132,53.899
			h-12v-1h12V53.899z M39.132,51.899h-12v-1h12V51.899z M39.132,47.899h-12v-12h12V47.899z M59.132,57.899h-16v-1h16V57.899z
			 M59.132,55.899h-16v-1h16V55.899z M59.132,53.899h-16v-1h16V53.899z M59.132,51.899H47.007v-1h12.125V51.899z M59.132,48.899h-16
			v-1h16V48.899z M59.132,46.899h-16v-1h16V46.899z M59.132,44.899h-16v-1h16V44.899z M59.132,42.899h-16v-1h16V42.899z
			 M43.132,39.899v-4h3v4H43.132z M59.132,39.899h-12v-1h12V39.899z M59.132,37.899h-12v-1h12V37.899z M59.132,31.899h-32v-4h32
			V31.899z"/>
	</g>
	<g>
		<path class="st0" d="M58.132,22.899h-32c-2.209,0-4,1.791-4,4v4v24v4c0,2.209,1.791,4,4,4h32c2.209,0,4-1.791,4-4v-4v-24v-4
			C62.132,24.69,60.341,22.899,58.132,22.899z M38.132,56.899h-12v-1h12V56.899z M38.132,54.899h-12v-1h12V54.899z M38.132,52.899
			h-12v-1h12V52.899z M38.132,50.899h-12v-1h12V50.899z M38.132,46.899h-12v-12h12V46.899z M58.132,56.899h-16v-1h16V56.899z
			 M58.132,54.899h-16v-1h16V54.899z M58.132,52.899h-16v-1h16V52.899z M58.132,50.899H46.007v-1h12.125V50.899z M58.132,47.899h-16
			v-1h16V47.899z M58.132,45.899h-16v-1h16V45.899z M58.132,43.899h-16v-1h16V43.899z M58.132,41.899h-16v-1h16V41.899z
			 M42.132,38.899v-4h3v4H42.132z M58.132,38.899h-12v-1h12V38.899z M58.132,36.899h-12v-1h12V36.899z M58.132,30.899h-32v-4h32
			V30.899z"/>
	</g>
</g>
<circle class="st0" cx="34.132" cy="39.08" r="2"/>
<path class="st0" d="M37.132,43.666l-0.785-0.781c-0.487-0.484-1.276-0.484-1.763,0l-0.844,0.839l-1.928-1.917
	c-0.976-0.97-2.559-0.97-3.536,0l-1.145,1.138v3.135h10V43.666z"/>
<g>
	<path class="st6" d="M26.132,47.08h12v-12h-12V47.08z M34.132,37.08c1.105,0,2,0.895,2,2c0,1.104-0.895,2-2,2s-2-0.896-2-2
		C32.132,37.976,33.027,37.08,34.132,37.08z M27.132,42.946l1.145-1.138c0.976-0.97,2.559-0.97,3.536,0l1.928,1.917l0.844-0.839
		c0.487-0.484,1.276-0.484,1.763,0l0.785,0.781v2.414h-10V42.946z"/>
	<rect x="46.132" y="38.08" class="st6" width="12" height="1"/>
	<rect x="46.132" y="36.08" class="st6" width="12" height="1"/>
	<rect x="42.132" y="35.08" class="st6" width="3" height="4"/>
	<rect x="42.132" y="41.08" class="st6" width="16" height="1"/>
	<rect x="42.132" y="43.08" class="st6" width="16" height="1"/>
	<rect x="42.132" y="45.08" class="st6" width="16" height="1"/>
	<rect x="42.132" y="47.08" class="st6" width="16" height="1"/>
	<rect x="46.007" y="50.08" class="st6" width="12.125" height="1"/>
	<rect x="26.132" y="50.08" class="st6" width="12" height="1"/>
	<rect x="26.132" y="52.08" class="st6" width="12" height="1"/>
	<rect x="26.132" y="54.08" class="st6" width="12" height="1"/>
	<rect x="26.132" y="56.08" class="st6" width="12" height="1"/>
	<rect x="42.132" y="52.08" class="st6" width="16" height="1"/>
	<rect x="42.132" y="54.08" class="st6" width="16" height="1"/>
	<rect x="42.132" y="56.08" class="st6" width="16" height="1"/>
	<rect x="26.132" y="27.08" class="st6" width="32" height="4"/>
</g>
    <text transform="matrix(1 0 0 1 7.1079 13.5215)" opacity="0" font-family="'MyriadPro-Regular'" font-size="12">a</text>
</svg>
