<?xml version="1.0" encoding="utf-8"?>
<!-- Generator: Adobe Illustrator 18.1.0, SVG Export Plug-In . SVG Version: 6.00 Build 0)  -->
<svg version="1.1" id="Camada_1" xmlns="http://www.w3.org/2000/svg" xmlns:xlink="http://www.w3.org/1999/xlink" x="0px" y="0px"
	 viewBox="0 0 83 83" style="enable-background:new 0 0 83 83;" xml:space="preserve">
<style type="text/css">
	.st0{fill:#FFFFFF;stroke:#6FA4C1;stroke-miterlimit:10;}
	.st1{clip-path:url(#SVGID_2_);}
	.st2{fill:#6FA4C1;}
	.st3{opacity:0.65;}
	.st4{fill:#FFFFFF;}
	.st5{fill:#4D7385;}
</style>
<circle class="st0" cx="41.132" cy="41.298" r="40"/>
<g>
	<defs>
		<path id="SVGID_1_" d="M81.132,41.298c0,22.091-17.909,40-40,40s-40-17.909-40-40s17.909-40,40-40S81.132,19.207,81.132,41.298z"
			/>
	</defs>
	<clipPath id="SVGID_2_">
		<use xlink:href="#SVGID_1_"  style="overflow:visible;"/>
	</clipPath>
	<g class="st1">
		
			<image style="overflow:visible;opacity:0.71;" width="696" height="501" xlink:href="103A3CC3.png"  transform="matrix(0.24 0 0 0.24 -39.6402 -15.6008)">
		</image>
		<g>
			<path class="st2" d="M-35.64-10.601v108h155v-108H-35.64z M41.132,81.298c-22.091,0-40-17.909-40-40s17.909-40,40-40
				s40,17.909,40,40S63.223,81.298,41.132,81.298z"/>
		</g>
	</g>
</g>
<path class="st2" d="M41.132,9.298c-17.673,0-32,14.327-32,32c0,17.673,14.327,32,32,32s32-14.327,32-32
	C73.132,23.625,58.805,9.298,41.132,9.298z M50.771,55.068c-4.594,5.186-9.639,8.23-9.639,8.23s-0.537-2.403-1.225-6.056
	c-10.472-0.573-18.775-8.375-18.775-17.944c0-9.941,8.954-18,20-18s20,8.059,20,18C61.132,46.093,56.946,52.004,50.771,55.068z"/>
<g>
	<g class="st3">
		<path d="M42.132,22.298c-11.046,0-20,8.059-20,18c0,9.569,8.303,17.372,18.775,17.944c0.688,3.652,1.225,6.056,1.225,6.056
			s5.045-3.044,9.639-8.23c6.175-3.064,10.361-8.975,10.361-15.77C62.132,30.357,53.178,22.298,42.132,22.298z M34.132,42.298
			c-1.105,0-2-0.895-2-2c0-1.105,0.895-2,2-2s2,0.895,2,2C36.132,41.403,35.236,42.298,34.132,42.298z M42.132,42.298
			c-1.105,0-2-0.895-2-2c0-1.105,0.895-2,2-2s2,0.895,2,2C44.132,41.403,43.236,42.298,42.132,42.298z M50.132,42.298
			c-1.105,0-2-0.895-2-2c0-1.105,0.895-2,2-2s2,0.895,2,2C52.132,41.403,51.236,42.298,50.132,42.298z"/>
		<circle cx="42.132" cy="40.298" r="2"/>
		<circle cx="50.132" cy="40.298" r="2"/>
		<circle cx="34.132" cy="40.298" r="2"/>
	</g>
	<g>
		<g>
			<path class="st4" d="M41.132,21.298c-11.046,0-20,8.059-20,18c0,9.569,8.303,17.372,18.775,17.944
				c0.688,3.652,1.225,6.056,1.225,6.056s5.045-3.044,9.639-8.23c6.175-3.064,10.361-8.975,10.361-15.77
				C61.132,29.357,52.178,21.298,41.132,21.298z M33.132,41.298c-1.105,0-2-0.895-2-2c0-1.105,0.895-2,2-2s2,0.895,2,2
				C35.132,40.403,34.236,41.298,33.132,41.298z M41.132,41.298c-1.105,0-2-0.895-2-2c0-1.105,0.895-2,2-2s2,0.895,2,2
				C43.132,40.403,42.236,41.298,41.132,41.298z M49.132,41.298c-1.105,0-2-0.895-2-2c0-1.105,0.895-2,2-2s2,0.895,2,2
				C51.132,40.403,50.236,41.298,49.132,41.298z"/>
			<circle class="st5" cx="41.132" cy="39.298" r="2"/>
			<circle class="st5" cx="49.132" cy="39.298" r="2"/>
			<circle class="st5" cx="33.132" cy="39.298" r="2"/>
		</g>
	</g>
</g>
    <text transform="matrix(1 0 0 1 7.1079 13.5215)" opacity="0" font-family="'MyriadPro-Regular'" font-size="12">a</text>
</svg>
