<?xml version="1.0" encoding="utf-8"?>
<!-- Generator: Adobe Illustrator 18.1.0, SVG Export Plug-In . SVG Version: 6.00 Build 0)  -->
<svg version="1.1" id="Camada_1" xmlns="http://www.w3.org/2000/svg" xmlns:xlink="http://www.w3.org/1999/xlink" x="0px" y="0px"
	 viewBox="0 0 83 83" style="enable-background:new 0 0 83 83;" xml:space="preserve">
<style type="text/css">
	.st0{fill:#FFFFFF;}
	.st1{clip-path:url(#SVGID_2_);}
	.st2{fill:#4C586C;}
	.st3{fill:none;stroke:#4C586C;stroke-miterlimit:10;}
	.st4{fill:#505D73;}
	.st5{opacity:0.65;}
</style>
<circle class="st0" cx="41.772" cy="41.899" r="40"/>
<g>
	<defs>
		<path id="SVGID_1_" d="M81.772,41.899c0,22.091-17.909,40-40,40s-40-17.909-40-40s17.909-40,40-40S81.772,19.808,81.772,41.899z"
			/>
	</defs>
	<clipPath id="SVGID_2_">
		<use xlink:href="#SVGID_1_"  style="overflow:visible;"/>
	</clipPath>
	<g class="st1">
		
			<image style="overflow:visible;opacity:0.71;" width="700" height="505" xlink:href="606768F1.png"  transform="matrix(0.24 0 0 0.24 -39.5 -15.5)">
		</image>
		<g>
			<path class="st2" d="M-35-10V98h155V-10H-35z M41.772,81.899c-22.091,0-40-17.909-40-40s17.909-40,40-40s40,17.909,40,40
				S63.863,81.899,41.772,81.899z"/>
			<path class="st3" d="M-35-10V98h155V-10H-35z M41.772,81.899c-22.091,0-40-17.909-40-40s17.909-40,40-40s40,17.909,40,40
				S63.863,81.899,41.772,81.899z"/>
		</g>
	</g>
</g>
<path class="st2" d="M41.772,9.5c-17.673,0-32,14.327-32,32c0,17.673,14.327,32,32,32s32-14.327,32-32
	C73.772,23.827,59.445,9.5,41.772,9.5z M31.772,61.5h-2c-2.209,0-4-1.791-4-4v-2h-1c-1.105,0-2-0.895-2-2c0-1.105,0.895-2,2-2h1v-4
	h-1c-1.105,0-2-0.895-2-2c0-1.105,0.895-2,2-2h1v-4h-1c-1.105,0-2-0.895-2-2c0-1.105,0.895-2,2-2h1v-4h-1c-1.105,0-2-0.895-2-2
	c0-1.105,0.895-2,2-2h1v-2c0-2.209,1.791-4,4-4h2V61.5z M60.772,31.5c0,1.105-0.895,2-2,2c-0.366,0-0.705-0.106-1-0.277v2.555
	c0.295-0.172,0.634-0.277,1-0.277c1.105,0,2,0.895,2,2v3c0,1.105-0.895,2-2,2c-0.366,0-0.705-0.106-1-0.277v2.555
	c0.295-0.172,0.634-0.277,1-0.277c1.105,0,2,0.895,2,2v3c0,1.105-0.895,2-2,2c-0.366,0-0.705-0.106-1-0.277V57.5
	c0,2.209-1.791,4-4,4h-19v-40h19c2.209,0,4,1.791,4,4v1.277c0.295-0.172,0.634-0.277,1-0.277c1.105,0,2,0.895,2,2V31.5z"/>
<g>
	<circle class="st4" cx="46.132" cy="36.782" r="4"/>
	<path class="st4" d="M46.132,41.774c-3.314,0-6,4.257-6,7.268c0,3.01,2.686,2.725,6,2.725s6,0.285,6-2.725
		C52.132,46.031,49.446,41.774,46.132,41.774z"/>
</g>
<g>
	<g class="st5">
		<path d="M59.772,27.5c-0.366,0-0.705,0.106-1,0.277V26.5c0-2.209-1.791-4-4-4h-19v40h19c2.209,0,4-1.791,4-4v-6.277
			c0.295,0.172,0.634,0.277,1,0.277c1.105,0,2-0.895,2-2v-3c0-1.105-0.895-2-2-2c-0.366,0-0.705,0.106-1,0.277v-2.555
			c0.295,0.172,0.634,0.277,1,0.277c1.105,0,2-0.895,2-2v-3c0-1.105-0.895-2-2-2c-0.366,0-0.705,0.106-1,0.277v-2.555
			c0.295,0.172,0.634,0.277,1,0.277c1.105,0,2-0.895,2-2v-3C61.772,28.395,60.877,27.5,59.772,27.5z M46.772,33.5
			c2.209,0,4,1.791,4,4c0,2.209-1.791,4-4,4s-4-1.791-4-4C42.772,35.291,44.563,33.5,46.772,33.5z M46.772,52.485
			c-3.314,0-6,0.285-6-2.725c0-3.01,2.686-7.268,6-7.268s6,4.257,6,7.268C52.772,52.77,50.086,52.485,46.772,52.485z"/>
	</g>
	<g>
		<path class="st0" d="M58.772,26.5c-0.366,0-0.705,0.106-1,0.277V25.5c0-2.209-1.791-4-4-4h-19v40h19c2.209,0,4-1.791,4-4v-6.277
			c0.295,0.172,0.634,0.277,1,0.277c1.105,0,2-0.895,2-2v-3c0-1.105-0.895-2-2-2c-0.366,0-0.705,0.106-1,0.277v-2.555
			c0.295,0.172,0.634,0.277,1,0.277c1.105,0,2-0.895,2-2v-3c0-1.105-0.895-2-2-2c-0.366,0-0.705,0.106-1,0.277v-2.555
			c0.295,0.172,0.634,0.277,1,0.277c1.105,0,2-0.895,2-2v-3C60.772,27.395,59.877,26.5,58.772,26.5z M45.772,32.5
			c2.209,0,4,1.791,4,4c0,2.209-1.791,4-4,4s-4-1.791-4-4C41.772,34.291,43.563,32.5,45.772,32.5z M45.772,51.485
			c-3.314,0-6,0.285-6-2.725c0-3.01,2.686-7.268,6-7.268s6,4.257,6,7.268C51.772,51.77,49.086,51.485,45.772,51.485z"/>
	</g>
</g>
<g>
	<g class="st5">
		<path d="M26.772,26.5v2h-1c-1.105,0-2,0.895-2,2c0,1.105,0.895,2,2,2h1v4h-1c-1.105,0-2,0.895-2,2c0,1.105,0.895,2,2,2h1v4h-1
			c-1.105,0-2,0.895-2,2c0,1.105,0.895,2,2,2h1v4h-1c-1.105,0-2,0.895-2,2c0,1.105,0.895,2,2,2h1v2c0,2.209,1.791,4,4,4h2v-40h-2
			C28.563,22.5,26.772,24.291,26.772,26.5z"/>
	</g>
	<g>
		<path class="st0" d="M25.772,25.5v2h-1c-1.105,0-2,0.895-2,2c0,1.105,0.895,2,2,2h1v4h-1c-1.105,0-2,0.895-2,2
			c0,1.105,0.895,2,2,2h1v4h-1c-1.105,0-2,0.895-2,2c0,1.105,0.895,2,2,2h1v4h-1c-1.105,0-2,0.895-2,2c0,1.105,0.895,2,2,2h1v2
			c0,2.209,1.791,4,4,4h2v-40h-2C27.563,21.5,25.772,23.291,25.772,25.5z"/>
	</g>
</g>
    <text transform="matrix(1 0 0 1 7.1079 13.5215)" opacity="0" font-family="'MyriadPro-Regular'" font-size="12">a</text>
</svg>
