<?xml version="1.0" encoding="utf-8"?>
<!-- Generator: Adobe Illustrator 18.1.0, SVG Export Plug-In . SVG Version: 6.00 Build 0)  -->
<svg version="1.1" id="Camada_1" xmlns="http://www.w3.org/2000/svg" xmlns:xlink="http://www.w3.org/1999/xlink" x="0px" y="0px"
	 viewBox="0 0 83 83" style="enable-background:new 0 0 83 83;" xml:space="preserve">
<style type="text/css">
	.st0{fill:#FFFFFF;}
	.st1{clip-path:url(#SVGID_2_);}
	.st2{fill:#E0BF7A;}
	.st3{fill:none;stroke:#E0BF7A;stroke-miterlimit:10;}
	.st4{fill:#E0BE7C;}
	.st5{opacity:0.65;}
</style>
<circle class="st0" cx="42.132" cy="41.298" r="40"/>
<g>
	<defs>
		<path id="SVGID_1_" d="M82.132,41.298c0,22.091-17.909,40-40,40s-40-17.909-40-40s17.909-40,40-40S82.132,19.207,82.132,41.298z"
			/>
	</defs>
	<clipPath id="SVGID_2_">
		<use xlink:href="#SVGID_1_"  style="overflow:visible;"/>
	</clipPath>
	<g class="st1">
		
			<image style="overflow:visible;opacity:0.71;" width="700" height="505" xlink:href="20E745EF.png"  transform="matrix(0.24 0 0 0.24 -39.1402 -16.1008)">
		</image>
		<g>
			<path class="st2" d="M-34.64-10.601v108h155v-108H-34.64z M42.132,81.298c-22.091,0-40-17.909-40-40s17.909-40,40-40
				s40,17.909,40,40S64.223,81.298,42.132,81.298z"/>
			<path class="st3" d="M-34.64-10.601v108h155v-108H-34.64z M42.132,81.298c-22.091,0-40-17.909-40-40s17.909-40,40-40
				s40,17.909,40,40S64.223,81.298,42.132,81.298z"/>
		</g>
	</g>
</g>
<path class="st4" d="M42.132,9.298c-17.673,0-32,14.327-32,32c0,17.673,14.327,32,32,32s32-14.327,32-32
	C74.132,23.625,59.805,9.298,42.132,9.298z M39.199,40.05c-0.216,3.523-1.83,8.798-8.291,13.932
	c-0.31,0.244-0.673,0.364-1.035,0.364c-0.506,0-1.004-0.23-1.335-0.67c-0.572-0.755-0.439-1.841,0.3-2.424
	c5.261-4.179,6.701-8.272,6.955-11.081c-0.746,0.419-1.586,0.683-2.496,0.683c-2.838,0-5.135-2.352-5.135-5.254
	c0-2.902,2.301-5.254,5.135-5.254c0.642,0,1.231,0.165,1.792,0.388l-0.017-0.041c0,0,0.248,0.089,0.593,0.278
	c0.017,0.01,0.035,0.014,0.052,0.021c0.01,0.007,0.017,0.014,0.028,0.021c0.237,0.134,0.509,0.313,0.812,0.567
	c0.129,0.11,0.237,0.237,0.356,0.357C38.178,33.175,39.569,35.541,39.199,40.05z M56.101,40.046
	c-0.216,3.523-1.83,8.798-8.291,13.932c-0.31,0.244-0.673,0.364-1.035,0.364c-0.506,0-1.004-0.23-1.335-0.67
	c-0.572-0.755-0.439-1.841,0.3-2.424c5.261-4.179,6.701-8.272,6.956-11.081c-0.743,0.426-1.583,0.687-2.493,0.687
	c-2.838,0-5.135-2.352-5.135-5.254c0-2.902,2.298-5.254,5.135-5.254c0.642,0,1.231,0.165,1.792,0.388l-0.021-0.041
	c0,0,0.248,0.089,0.593,0.278c0.017,0.01,0.035,0.014,0.052,0.021c0.01,0.007,0.017,0.014,0.028,0.021
	c0.237,0.134,0.509,0.313,0.812,0.567c0.129,0.11,0.237,0.237,0.356,0.357C55.08,33.175,56.467,35.541,56.101,40.046z"/>
<g>
	<g class="st5">
		<path d="M54.429,32.531c-0.303-0.254-0.575-0.433-0.812-0.567c-0.01-0.007-0.017-0.014-0.028-0.021
			c-0.017-0.007-0.035-0.01-0.052-0.021c-0.345-0.189-0.593-0.278-0.593-0.278l0.021,0.041c-0.561-0.223-1.151-0.388-1.792-0.388
			c-2.838,0-5.135,2.352-5.135,5.254c0,2.902,2.298,5.254,5.135,5.254c0.91,0,1.75-0.261,2.493-0.687
			c-0.255,2.809-1.694,6.902-6.956,11.081c-0.739,0.584-0.872,1.669-0.3,2.424c0.331,0.44,0.83,0.67,1.335,0.67
			c0.363,0,0.725-0.12,1.035-0.364c6.46-5.134,8.075-10.408,8.291-13.932c0.366-4.505-1.022-6.871-2.287-8.111
			C54.667,32.768,54.558,32.641,54.429,32.531z"/>
	</g>
	<g>
		<path class="st0" d="M53.429,31.531c-0.303-0.254-0.575-0.433-0.812-0.567c-0.01-0.007-0.017-0.014-0.028-0.021
			c-0.017-0.007-0.035-0.01-0.052-0.021c-0.345-0.189-0.593-0.278-0.593-0.278l0.021,0.041c-0.561-0.223-1.151-0.388-1.792-0.388
			c-2.838,0-5.135,2.352-5.135,5.254c0,2.902,2.298,5.254,5.135,5.254c0.91,0,1.75-0.261,2.493-0.687
			c-0.255,2.809-1.694,6.902-6.956,11.081c-0.739,0.584-0.872,1.669-0.3,2.424c0.331,0.44,0.83,0.67,1.335,0.67
			c0.363,0,0.725-0.12,1.035-0.364c6.46-5.134,8.075-10.408,8.291-13.932c0.366-4.505-1.022-6.871-2.287-8.111
			C53.667,31.768,53.558,31.641,53.429,31.531z"/>
	</g>
</g>
<g>
	<g class="st5">
		<path d="M37.527,32.531c-0.303-0.254-0.575-0.433-0.812-0.567c-0.01-0.007-0.017-0.014-0.028-0.021
			c-0.017-0.007-0.035-0.01-0.052-0.021c-0.345-0.189-0.593-0.278-0.593-0.278l0.017,0.041c-0.561-0.223-1.151-0.388-1.792-0.388
			c-2.834,0-5.135,2.352-5.135,5.254c0,2.902,2.298,5.254,5.135,5.254c0.91,0,1.75-0.264,2.496-0.683
			c-0.255,2.809-1.694,6.902-6.955,11.081c-0.739,0.584-0.872,1.669-0.3,2.424c0.331,0.44,0.83,0.67,1.335,0.67
			c0.363,0,0.725-0.12,1.035-0.364c6.46-5.134,8.075-10.408,8.291-13.932c0.37-4.509-1.022-6.875-2.287-8.115
			C37.764,32.768,37.656,32.641,37.527,32.531z"/>
	</g>
	<g>
		<path class="st0" d="M36.527,31.531c-0.303-0.254-0.575-0.433-0.812-0.567c-0.01-0.007-0.017-0.014-0.028-0.021
			c-0.017-0.007-0.035-0.01-0.052-0.021c-0.345-0.189-0.593-0.278-0.593-0.278l0.017,0.041c-0.561-0.223-1.151-0.388-1.792-0.388
			c-2.834,0-5.135,2.352-5.135,5.254c0,2.902,2.298,5.254,5.135,5.254c0.91,0,1.75-0.264,2.496-0.683
			c-0.255,2.809-1.694,6.902-6.955,11.081c-0.739,0.584-0.872,1.669-0.3,2.424c0.331,0.44,0.83,0.67,1.335,0.67
			c0.363,0,0.725-0.12,1.035-0.364c6.46-5.134,8.075-10.408,8.291-13.932c0.37-4.509-1.022-6.875-2.287-8.115
			C36.764,31.768,36.656,31.641,36.527,31.531z"/>
	</g>
</g>
    <text transform="matrix(1 0 0 1 7.1079 13.5215)" opacity="0" font-family="'MyriadPro-Regular'" font-size="12">a</text>
</svg>
