<?xml version="1.0" encoding="utf-8"?>
<!-- Generator: Adobe Illustrator 18.1.0, SVG Export Plug-In . SVG Version: 6.00 Build 0)  -->
<svg version="1.1" id="Camada_1" xmlns="http://www.w3.org/2000/svg" xmlns:xlink="http://www.w3.org/1999/xlink" x="0px" y="0px"
	 viewBox="0 0 83 83" style="enable-background:new 0 0 83 83;" xml:space="preserve">
<style type="text/css">
	.st0{fill:#FFFFFF;}
	.st1{clip-path:url(#SVGID_2_);}
	.st2{fill:#B85555;}
	.st3{fill:none;stroke:#B85555;stroke-miterlimit:10;}
	.st4{opacity:0.8;}
</style>
<circle class="st0" cx="41.772" cy="41" r="40"/>
<g>
	<defs>
		<path id="SVGID_1_" d="M81.772,41c0,22.091-17.909,40-40,40s-40-17.909-40-40s17.909-40,40-40S81.772,18.909,81.772,41z"/>
	</defs>
	<clipPath id="SVGID_2_">
		<use xlink:href="#SVGID_1_"  style="overflow:visible;"/>
	</clipPath>
	<g class="st1">
		
			<image style="overflow:visible;opacity:0.71;" width="700" height="505" xlink:href="D8B6B081.png"  transform="matrix(0.24 0 0 0.24 -39.5 -16.3992)">
		</image>
		<g>
			<path class="st2" d="M-35-10.899v108h155v-108H-35z M41.772,81c-22.091,0-40-17.909-40-40s17.909-40,40-40s40,17.909,40,40
				S63.863,81,41.772,81z"/>
			<path class="st3" d="M-35-10.899v108h155v-108H-35z M41.772,81c-22.091,0-40-17.909-40-40s17.909-40,40-40s40,17.909,40,40
				S63.863,81,41.772,81z"/>
		</g>
	</g>
</g>
<circle class="st0" cx="33.772" cy="37.782" r="2"/>
<path class="st2" d="M41.772,9c-17.673,0-32,14.327-32,32c0,17.673,14.327,32,32,32s32-14.327,32-32
	C73.772,23.327,59.445,9,41.772,9z M45.443,65.056c0,0,5.642-7.618,0.509-12.529c-7.286-6.971-4.18-11.448-4.18-11.448
	s-17.754,8.685-3.875,23.984c0,0-16.063-2.377-16.063-16.063c0-13.686,21.003-14.991,16.355-31.969c0,0,15.726,4.921,11.887,20.245
	c0,0,2.079-1.328,3.671-3.913c0,0,7.963,6.151,7.963,15.511C61.71,58.235,50.672,65.12,45.443,65.056z"/>
<g>
	<g class="st4">
		<path d="M54.747,34.317c-1.591,2.585-3.671,3.913-3.671,3.913c3.839-15.324-11.887-20.245-11.887-20.245
			c4.648,16.978-16.355,18.283-16.355,31.969c0,13.686,16.063,16.063,16.063,16.063c-13.879-15.3,3.875-23.984,3.875-23.984
			s-3.106,4.477,4.18,11.448c5.133,4.911-0.509,12.529-0.509,12.529c5.229,0.065,16.267-6.82,16.267-16.181
			C62.71,40.468,54.747,34.317,54.747,34.317z"/>
	</g>
	<g>
		<path class="st0" d="M53.747,33.317c-1.591,2.585-3.671,3.913-3.671,3.913c3.839-15.324-11.887-20.245-11.887-20.245
			c4.648,16.978-16.355,18.283-16.355,31.969c0,13.686,16.063,16.063,16.063,16.063c-13.879-15.3,3.875-23.984,3.875-23.984
			s-3.106,4.477,4.18,11.448c5.133,4.911-0.509,12.529-0.509,12.529c5.229,0.065,16.267-6.82,16.267-16.181
			C61.71,39.468,53.747,33.317,53.747,33.317z"/>
	</g>
</g>
    <text transform="matrix(1 0 0 1 7.1079 13.5215)" opacity="0" font-family="'MyriadPro-Regular'" font-size="12">a</text>
</svg>
