<?xml version="1.0" encoding="utf-8"?>
<!-- Generator: Adobe Illustrator 18.1.0, SVG Export Plug-In . SVG Version: 6.00 Build 0)  -->
<svg version="1.1" id="Camada_1" xmlns="http://www.w3.org/2000/svg" xmlns:xlink="http://www.w3.org/1999/xlink" x="0px" y="0px"
	 viewBox="0 0 83 83" style="enable-background:new 0 0 83 83;" xml:space="preserve">
<style type="text/css">
	.st0{fill:#FFFFFF;}
	.st1{clip-path:url(#SVGID_2_);}
	.st2{fill:#6AB09E;}
	.st3{fill:none;stroke:#6AB09E;stroke-miterlimit:10;}
	.st4{fill:#6CB2A0;}
	.st5{opacity:0.33;}
	.st6{fill:#010202;}
</style>
<circle class="st0" cx="41.772" cy="41.298" r="40"/>
<g>
	<defs>
		<path id="SVGID_1_" d="M81.772,41.298c0,22.091-17.909,40-40,40s-40-17.909-40-40s17.909-40,40-40S81.772,19.207,81.772,41.298z"
			/>
	</defs>
	<clipPath id="SVGID_2_">
		<use xlink:href="#SVGID_1_"  style="overflow:visible;"/>
	</clipPath>
	<g class="st1">
		
			<image style="overflow:visible;opacity:0.71;" width="700" height="505" xlink:href="5293BF7F.png"  transform="matrix(0.24 0 0 0.24 -39.5 -16.1008)">
		</image>
		<g>
			<path class="st2" d="M-35-10.601v108h155v-108H-35z M41.772,81.298c-22.091,0-40-17.909-40-40s17.909-40,40-40s40,17.909,40,40
				S63.863,81.298,41.772,81.298z"/>
			<path class="st3" d="M-35-10.601v108h155v-108H-35z M41.772,81.298c-22.091,0-40-17.909-40-40s17.909-40,40-40s40,17.909,40,40
				S63.863,81.298,41.772,81.298z"/>
		</g>
	</g>
</g>
<g>
	<circle class="st4" cx="41.772" cy="41.298" r="32"/>
</g>
<g>
	<g class="st5">
		<circle class="st6" cx="42.772" cy="42.299" r="3.683"/>
		<path class="st6" d="M49.019,51.952c0.47,0.47,1.087,0.706,1.703,0.706c0.616,0,1.233-0.235,1.704-0.706
			c2.579-2.578,3.999-6.007,3.999-9.654c0-3.647-1.42-7.076-3.999-9.654c-0.941-0.941-2.467-0.941-3.407,0
			c-0.941,0.941-0.941,2.467,0,3.407c1.669,1.669,2.587,3.887,2.587,6.247c0,2.36-0.918,4.578-2.587,6.247
			C48.078,49.486,48.078,51.011,49.019,51.952z"/>
		<path class="st6" d="M57.13,56.495c0.47,0.47,1.087,0.706,1.703,0.706c0.616,0,1.233-0.235,1.703-0.706
			c7.829-7.828,7.829-20.566,0-28.394c-0.941-0.941-2.466-0.941-3.407,0c-0.941,0.94-0.941,2.467,0,3.407
			c5.949,5.949,5.949,15.631,0,21.58C56.189,54.029,56.189,55.555,57.13,56.495z"/>
		<path class="st6" d="M36.525,32.645c-0.939-0.941-2.466-0.941-3.407,0c-2.579,2.578-3.999,6.007-3.999,9.654
			c0,3.647,1.42,7.076,3.999,9.654c0.471,0.47,1.087,0.706,1.704,0.706c0.616,0,1.234-0.235,1.703-0.706
			c0.941-0.941,0.941-2.467,0-3.407c-1.669-1.669-2.587-3.887-2.587-6.247c0-2.36,0.918-4.578,2.587-6.247
			C37.467,35.112,37.467,33.586,36.525,32.645z"/>
		<path class="st6" d="M25.007,28.102c-7.829,7.828-7.829,20.566,0,28.394c0.47,0.47,1.087,0.706,1.703,0.706
			c0.616,0,1.233-0.235,1.703-0.706c0.941-0.94,0.941-2.467,0-3.407c-5.949-5.949-5.949-15.631,0-21.58
			c0.941-0.94,0.941-2.466,0-3.407C27.473,27.161,25.948,27.161,25.007,28.102z"/>
	</g>
	<g>
		<g>
			<circle class="st0" cx="41.772" cy="41.299" r="3.683"/>
			<path class="st0" d="M48.019,50.952c0.47,0.47,1.087,0.706,1.703,0.706c0.616,0,1.233-0.235,1.704-0.706
				c2.579-2.578,3.999-6.007,3.999-9.654c0-3.647-1.42-7.076-3.999-9.654c-0.941-0.941-2.467-0.941-3.407,0
				c-0.941,0.941-0.941,2.467,0,3.407c1.669,1.669,2.587,3.887,2.587,6.247c0,2.36-0.918,4.578-2.587,6.247
				C47.078,48.486,47.078,50.011,48.019,50.952z"/>
			<path class="st0" d="M56.13,55.495c0.47,0.47,1.087,0.706,1.703,0.706c0.616,0,1.233-0.235,1.703-0.706
				c7.829-7.828,7.829-20.566,0-28.394c-0.941-0.941-2.466-0.941-3.407,0c-0.941,0.94-0.941,2.467,0,3.407
				c5.949,5.949,5.949,15.631,0,21.58C55.189,53.029,55.189,54.555,56.13,55.495z"/>
			<path class="st0" d="M35.525,31.645c-0.939-0.941-2.466-0.941-3.407,0c-2.579,2.578-3.999,6.007-3.999,9.654
				c0,3.647,1.42,7.076,3.999,9.654c0.471,0.47,1.087,0.706,1.704,0.706c0.616,0,1.234-0.235,1.703-0.706
				c0.941-0.941,0.941-2.467,0-3.407c-1.669-1.669-2.587-3.887-2.587-6.247c0-2.36,0.918-4.578,2.587-6.247
				C36.467,34.112,36.467,32.586,35.525,31.645z"/>
			<path class="st0" d="M24.007,27.102c-7.829,7.828-7.829,20.566,0,28.394c0.47,0.47,1.087,0.706,1.703,0.706
				c0.616,0,1.233-0.235,1.703-0.706c0.941-0.94,0.941-2.467,0-3.407c-5.949-5.949-5.949-15.631,0-21.58
				c0.941-0.94,0.941-2.466,0-3.407C26.473,26.161,24.948,26.161,24.007,27.102z"/>
		</g>
	</g>
</g>
    <text transform="matrix(1 0 0 1 7.1079 13.5215)" opacity="0" font-family="'MyriadPro-Regular'" font-size="12">a</text>
</svg>
