<?xml version="1.0" encoding="utf-8"?>
<!-- Generator: Adobe Illustrator 18.1.0, SVG Export Plug-In . SVG Version: 6.00 Build 0)  -->
<svg version="1.1" id="Camada_1" xmlns="http://www.w3.org/2000/svg" xmlns:xlink="http://www.w3.org/1999/xlink" x="0px" y="0px"
	 viewBox="0 0 83 510" style="enable-background:new 0 0 83 510;" xml:space="preserve">
<style type="text/css">
	.st0{fill:#FFFFFF;}
	.st1{clip-path:url(#SVGID_2_);}
	.st2{fill:#6AB09E;}
	.st3{fill:none;stroke:#6AB09E;stroke-miterlimit:10;}
	.st4{fill:#6CB2A0;}
	.st5{opacity:0.33;}
	.st6{fill:#010202;}
	.st7{clip-path:url(#SVGID_4_);}
	.st8{fill:#4C586C;}
	.st9{fill:none;stroke:#4C586C;stroke-miterlimit:10;}
	.st10{fill:#505D73;}
	.st11{opacity:0.65;}
	.st12{fill:#FFFFFF;stroke:#6FA4C1;stroke-miterlimit:10;}
	.st13{clip-path:url(#SVGID_6_);}
	.st14{fill:#6FA4C1;}
	.st15{fill:#4D7385;}
	.st16{clip-path:url(#SVGID_8_);}
	.st17{fill:#E0BF7A;}
	.st18{fill:none;stroke:#E0BF7A;stroke-miterlimit:10;}
	.st19{fill:#E0BE7C;}
	.st20{clip-path:url(#SVGID_10_);}
	.st21{fill:#CD8C54;}
	.st22{fill:none;stroke:#CD8C54;stroke-miterlimit:10;}
	.st23{fill:#CD8C54;stroke:#CD8C54;stroke-miterlimit:10;}
	.st24{fill:#8E623B;}
	.st25{clip-path:url(#SVGID_12_);}
	.st26{fill:#B85555;}
	.st27{fill:none;stroke:#B85555;stroke-miterlimit:10;}
	.st28{opacity:0.8;}
</style>
<circle class="st0" cx="40.772" cy="123.298" r="40"/>
<g>
	<defs>
		<path id="SVGID_1_" d="M80.772,123.298c0,22.091-17.909,40-40,40s-40-17.909-40-40s17.909-40,40-40S80.772,101.207,80.772,123.298
			z"/>
	</defs>
	<clipPath id="SVGID_2_">
		<use xlink:href="#SVGID_1_"  style="overflow:visible;"/>
	</clipPath>
	<g class="st1">
		
			<image style="overflow:visible;opacity:0.71;" width="700" height="505" xlink:href="A7F2793.png"  transform="matrix(0.24 0 0 0.24 -40.5 65.8992)">
		</image>
		<g>
			<path class="st2" d="M-36,71.399v108h155v-108H-36z M40.772,163.298c-22.091,0-40-17.909-40-40s17.909-40,40-40s40,17.909,40,40
				S62.863,163.298,40.772,163.298z"/>
			<path class="st3" d="M-36,71.399v108h155v-108H-36z M40.772,163.298c-22.091,0-40-17.909-40-40s17.909-40,40-40s40,17.909,40,40
				S62.863,163.298,40.772,163.298z"/>
		</g>
	</g>
</g>
<g>
	<circle class="st4" cx="40.772" cy="123.298" r="32"/>
</g>
<g>
	<g class="st5">
		<circle class="st6" cx="41.772" cy="124.299" r="3.683"/>
		<path class="st6" d="M48.019,133.952c0.47,0.47,1.087,0.706,1.703,0.706c0.616,0,1.233-0.235,1.704-0.706
			c2.579-2.578,3.999-6.007,3.999-9.654c0-3.647-1.42-7.076-3.999-9.654c-0.941-0.941-2.467-0.941-3.407,0
			c-0.941,0.941-0.941,2.467,0,3.407c1.669,1.669,2.587,3.887,2.587,6.247s-0.918,4.578-2.587,6.247
			C47.078,131.486,47.078,133.011,48.019,133.952z"/>
		<path class="st6" d="M56.13,138.495c0.47,0.47,1.087,0.706,1.703,0.706c0.616,0,1.233-0.235,1.703-0.706
			c7.829-7.828,7.829-20.566,0-28.394c-0.941-0.941-2.466-0.941-3.407,0c-0.941,0.94-0.941,2.467,0,3.407
			c5.949,5.949,5.949,15.631,0,21.58C55.189,136.029,55.189,137.555,56.13,138.495z"/>
		<path class="st6" d="M35.525,114.645c-0.939-0.941-2.466-0.941-3.407,0c-2.579,2.578-3.999,6.007-3.999,9.654
			c0,3.647,1.42,7.076,3.999,9.654c0.471,0.47,1.087,0.706,1.704,0.706c0.616,0,1.234-0.235,1.703-0.706
			c0.941-0.941,0.941-2.467,0-3.407c-1.669-1.669-2.587-3.887-2.587-6.247s0.918-4.578,2.587-6.247
			C36.467,117.112,36.467,115.586,35.525,114.645z"/>
		<path class="st6" d="M24.007,110.102c-7.829,7.828-7.829,20.566,0,28.394c0.47,0.47,1.087,0.706,1.703,0.706
			c0.616,0,1.233-0.235,1.703-0.706c0.941-0.94,0.941-2.467,0-3.407c-5.949-5.949-5.949-15.631,0-21.58
			c0.941-0.94,0.941-2.466,0-3.407C26.473,109.161,24.948,109.161,24.007,110.102z"/>
	</g>
	<g>
		<g>
			<circle class="st0" cx="40.772" cy="123.299" r="3.683"/>
			<path class="st0" d="M47.019,132.952c0.47,0.47,1.087,0.706,1.703,0.706c0.616,0,1.233-0.235,1.704-0.706
				c2.579-2.578,3.999-6.007,3.999-9.654c0-3.647-1.42-7.076-3.999-9.654c-0.941-0.941-2.467-0.941-3.407,0
				c-0.941,0.941-0.941,2.467,0,3.407c1.669,1.669,2.587,3.887,2.587,6.247s-0.918,4.578-2.587,6.247
				C46.078,130.486,46.078,132.011,47.019,132.952z"/>
			<path class="st0" d="M55.13,137.495c0.47,0.47,1.087,0.706,1.703,0.706c0.616,0,1.233-0.235,1.703-0.706
				c7.829-7.828,7.829-20.566,0-28.394c-0.941-0.941-2.466-0.941-3.407,0c-0.941,0.94-0.941,2.467,0,3.407
				c5.949,5.949,5.949,15.631,0,21.58C54.189,135.029,54.189,136.555,55.13,137.495z"/>
			<path class="st0" d="M34.525,113.645c-0.939-0.941-2.466-0.941-3.407,0c-2.579,2.578-3.999,6.007-3.999,9.654
				c0,3.647,1.42,7.076,3.999,9.654c0.471,0.47,1.087,0.706,1.704,0.706c0.616,0,1.234-0.235,1.703-0.706
				c0.941-0.941,0.941-2.467,0-3.407c-1.669-1.669-2.587-3.887-2.587-6.247s0.918-4.578,2.587-6.247
				C35.467,116.112,35.467,114.586,34.525,113.645z"/>
			<path class="st0" d="M23.007,109.102c-7.829,7.828-7.829,20.566,0,28.394c0.47,0.47,1.087,0.706,1.703,0.706
				c0.616,0,1.233-0.235,1.703-0.706c0.941-0.94,0.941-2.467,0-3.407c-5.949-5.949-5.949-15.631,0-21.58
				c0.941-0.94,0.941-2.466,0-3.407C25.473,108.161,23.948,108.161,23.007,109.102z"/>
		</g>
	</g>
</g>
<circle class="st0" cx="40.772" cy="40.899" r="40"/>
<g>
	<defs>
		<path id="SVGID_3_" d="M80.772,40.899c0,22.091-17.909,40-40,40s-40-17.909-40-40s17.909-40,40-40S80.772,18.808,80.772,40.899z"
			/>
	</defs>
	<clipPath id="SVGID_4_">
		<use xlink:href="#SVGID_3_"  style="overflow:visible;"/>
	</clipPath>
	<g class="st7">
		
			<image style="overflow:visible;opacity:0.71;" width="700" height="505" xlink:href="A7F2791.png"  transform="matrix(0.24 0 0 0.24 -40.5 -16.5)">
		</image>
		<g>
			<path class="st8" d="M-36-11V97h155V-11H-36z M40.772,80.899c-22.091,0-40-17.909-40-40s17.909-40,40-40s40,17.909,40,40
				S62.863,80.899,40.772,80.899z"/>
			<path class="st9" d="M-36-11V97h155V-11H-36z M40.772,80.899c-22.091,0-40-17.909-40-40s17.909-40,40-40s40,17.909,40,40
				S62.863,80.899,40.772,80.899z"/>
		</g>
	</g>
</g>
<path class="st8" d="M40.772,8.5c-17.673,0-32,14.327-32,32c0,17.673,14.327,32,32,32s32-14.327,32-32
	C72.772,22.827,58.445,8.5,40.772,8.5z M30.772,60.5h-2c-2.209,0-4-1.791-4-4v-2h-1c-1.105,0-2-0.895-2-2c0-1.105,0.895-2,2-2h1v-4
	h-1c-1.105,0-2-0.895-2-2c0-1.105,0.895-2,2-2h1v-4h-1c-1.105,0-2-0.895-2-2c0-1.105,0.895-2,2-2h1v-4h-1c-1.105,0-2-0.895-2-2
	c0-1.105,0.895-2,2-2h1v-2c0-2.209,1.791-4,4-4h2V60.5z M59.772,30.5c0,1.105-0.895,2-2,2c-0.366,0-0.705-0.106-1-0.277v2.555
	c0.295-0.172,0.634-0.277,1-0.277c1.105,0,2,0.895,2,2v3c0,1.105-0.895,2-2,2c-0.366,0-0.705-0.106-1-0.277v2.555
	c0.295-0.172,0.634-0.277,1-0.277c1.105,0,2,0.895,2,2v3c0,1.105-0.895,2-2,2c-0.366,0-0.705-0.106-1-0.277V56.5
	c0,2.209-1.791,4-4,4h-19v-40h19c2.209,0,4,1.791,4,4v1.277c0.295-0.172,0.634-0.277,1-0.277c1.105,0,2,0.895,2,2V30.5z"/>
<g>
	<circle class="st10" cx="45.132" cy="35.782" r="4"/>
	<path class="st10" d="M45.132,40.774c-3.314,0-6,4.257-6,7.268c0,3.01,2.686,2.725,6,2.725s6,0.285,6-2.725
		C51.132,45.031,48.446,40.774,45.132,40.774z"/>
</g>
<g>
	<g class="st11">
		<path d="M58.772,26.5c-0.366,0-0.705,0.106-1,0.277V25.5c0-2.209-1.791-4-4-4h-19v40h19c2.209,0,4-1.791,4-4v-6.277
			c0.295,0.172,0.634,0.277,1,0.277c1.105,0,2-0.895,2-2v-3c0-1.105-0.895-2-2-2c-0.366,0-0.705,0.106-1,0.277v-2.555
			c0.295,0.172,0.634,0.277,1,0.277c1.105,0,2-0.895,2-2v-3c0-1.105-0.895-2-2-2c-0.366,0-0.705,0.106-1,0.277v-2.555
			c0.295,0.172,0.634,0.277,1,0.277c1.105,0,2-0.895,2-2v-3C60.772,27.395,59.877,26.5,58.772,26.5z M45.772,32.5
			c2.209,0,4,1.791,4,4c0,2.209-1.791,4-4,4s-4-1.791-4-4C41.772,34.291,43.563,32.5,45.772,32.5z M45.772,51.485
			c-3.314,0-6,0.285-6-2.725c0-3.01,2.686-7.268,6-7.268s6,4.257,6,7.268C51.772,51.77,49.086,51.485,45.772,51.485z"/>
	</g>
	<g>
		<path class="st0" d="M57.772,25.5c-0.366,0-0.705,0.106-1,0.277V24.5c0-2.209-1.791-4-4-4h-19v40h19c2.209,0,4-1.791,4-4v-6.277
			c0.295,0.172,0.634,0.277,1,0.277c1.105,0,2-0.895,2-2v-3c0-1.105-0.895-2-2-2c-0.366,0-0.705,0.106-1,0.277v-2.555
			c0.295,0.172,0.634,0.277,1,0.277c1.105,0,2-0.895,2-2v-3c0-1.105-0.895-2-2-2c-0.366,0-0.705,0.106-1,0.277v-2.555
			c0.295,0.172,0.634,0.277,1,0.277c1.105,0,2-0.895,2-2v-3C59.772,26.395,58.877,25.5,57.772,25.5z M44.772,31.5
			c2.209,0,4,1.791,4,4c0,2.209-1.791,4-4,4s-4-1.791-4-4C40.772,33.291,42.563,31.5,44.772,31.5z M44.772,50.485
			c-3.314,0-6,0.285-6-2.725c0-3.01,2.686-7.268,6-7.268s6,4.257,6,7.268C50.772,50.77,48.086,50.485,44.772,50.485z"/>
	</g>
</g>
<g>
	<g class="st11">
		<path d="M25.772,25.5v2h-1c-1.105,0-2,0.895-2,2c0,1.105,0.895,2,2,2h1v4h-1c-1.105,0-2,0.895-2,2c0,1.105,0.895,2,2,2h1v4h-1
			c-1.105,0-2,0.895-2,2c0,1.105,0.895,2,2,2h1v4h-1c-1.105,0-2,0.895-2,2c0,1.105,0.895,2,2,2h1v2c0,2.209,1.791,4,4,4h2v-40h-2
			C27.563,21.5,25.772,23.291,25.772,25.5z"/>
	</g>
	<g>
		<path class="st0" d="M24.772,24.5v2h-1c-1.105,0-2,0.895-2,2c0,1.105,0.895,2,2,2h1v4h-1c-1.105,0-2,0.895-2,2
			c0,1.105,0.895,2,2,2h1v4h-1c-1.105,0-2,0.895-2,2c0,1.105,0.895,2,2,2h1v4h-1c-1.105,0-2,0.895-2,2c0,1.105,0.895,2,2,2h1v2
			c0,2.209,1.791,4,4,4h2v-40h-2C26.563,20.5,24.772,22.291,24.772,24.5z"/>
	</g>
</g>
<circle class="st12" cx="41.132" cy="206.298" r="40"/>
<g>
	<defs>
		<path id="SVGID_5_" d="M81.132,206.298c0,22.091-17.909,40-40,40s-40-17.909-40-40s17.909-40,40-40S81.132,184.207,81.132,206.298
			z"/>
	</defs>
	<clipPath id="SVGID_6_">
		<use xlink:href="#SVGID_5_"  style="overflow:visible;"/>
	</clipPath>
	<g class="st13">
		
			<image style="overflow:visible;opacity:0.71;" width="696" height="501" xlink:href="A7F2797.png"  transform="matrix(0.24 0 0 0.24 -39.6402 149.3992)">
		</image>
		<g>
			<path class="st14" d="M-35.64,154.399v108h155v-108H-35.64z M41.132,246.298c-22.091,0-40-17.909-40-40s17.909-40,40-40
				s40,17.909,40,40S63.223,246.298,41.132,246.298z"/>
		</g>
	</g>
</g>
<path class="st14" d="M41.132,174.298c-17.673,0-32,14.327-32,32c0,17.673,14.327,32,32,32s32-14.327,32-32
	C73.132,188.625,58.805,174.298,41.132,174.298z M50.771,220.068c-4.594,5.186-9.639,8.23-9.639,8.23s-0.537-2.403-1.225-6.056
	c-10.472-0.573-18.775-8.375-18.775-17.944c0-9.941,8.954-18,20-18s20,8.059,20,18C61.132,211.093,56.946,217.004,50.771,220.068z"
	/>
<g>
	<g class="st11">
		<path d="M42.132,187.298c-11.046,0-20,8.059-20,18c0,9.569,8.303,17.372,18.775,17.944c0.688,3.652,1.225,6.056,1.225,6.056
			s5.045-3.044,9.639-8.23c6.175-3.064,10.361-8.975,10.361-15.77C62.132,195.357,53.178,187.298,42.132,187.298z M34.132,207.298
			c-1.105,0-2-0.895-2-2c0-1.105,0.895-2,2-2s2,0.895,2,2C36.132,206.403,35.236,207.298,34.132,207.298z M42.132,207.298
			c-1.105,0-2-0.895-2-2c0-1.105,0.895-2,2-2s2,0.895,2,2C44.132,206.403,43.236,207.298,42.132,207.298z M50.132,207.298
			c-1.105,0-2-0.895-2-2c0-1.105,0.895-2,2-2s2,0.895,2,2C52.132,206.403,51.236,207.298,50.132,207.298z"/>
		<circle cx="42.132" cy="205.298" r="2"/>
		<circle cx="50.132" cy="205.298" r="2"/>
		<circle cx="34.132" cy="205.298" r="2"/>
	</g>
	<g>
		<g>
			<path class="st0" d="M41.132,186.298c-11.046,0-20,8.059-20,18c0,9.569,8.303,17.372,18.775,17.944
				c0.688,3.652,1.225,6.056,1.225,6.056s5.045-3.044,9.639-8.23c6.175-3.064,10.361-8.975,10.361-15.77
				C61.132,194.357,52.178,186.298,41.132,186.298z M33.132,206.298c-1.105,0-2-0.895-2-2c0-1.105,0.895-2,2-2s2,0.895,2,2
				C35.132,205.403,34.236,206.298,33.132,206.298z M41.132,206.298c-1.105,0-2-0.895-2-2c0-1.105,0.895-2,2-2s2,0.895,2,2
				C43.132,205.403,42.236,206.298,41.132,206.298z M49.132,206.298c-1.105,0-2-0.895-2-2c0-1.105,0.895-2,2-2s2,0.895,2,2
				C51.132,205.403,50.236,206.298,49.132,206.298z"/>
			<circle class="st15" cx="41.132" cy="204.298" r="2"/>
			<circle class="st15" cx="49.132" cy="204.298" r="2"/>
			<circle class="st15" cx="33.132" cy="204.298" r="2"/>
		</g>
	</g>
</g>
<circle class="st0" cx="41.132" cy="289.298" r="40"/>
<g>
	<defs>
		<path id="SVGID_7_" d="M81.132,289.298c0,22.091-17.909,40-40,40s-40-17.909-40-40s17.909-40,40-40S81.132,267.207,81.132,289.298
			z"/>
	</defs>
	<clipPath id="SVGID_8_">
		<use xlink:href="#SVGID_7_"  style="overflow:visible;"/>
	</clipPath>
	<g class="st16">
		
			<image style="overflow:visible;opacity:0.71;" width="700" height="505" xlink:href="A7F2790.png"  transform="matrix(0.24 0 0 0.24 -40.1402 231.8992)">
		</image>
		<g>
			<path class="st17" d="M-35.64,237.399v108h155v-108H-35.64z M41.132,329.298c-22.091,0-40-17.909-40-40s17.909-40,40-40
				s40,17.909,40,40S63.223,329.298,41.132,329.298z"/>
			<path class="st18" d="M-35.64,237.399v108h155v-108H-35.64z M41.132,329.298c-22.091,0-40-17.909-40-40s17.909-40,40-40
				s40,17.909,40,40S63.223,329.298,41.132,329.298z"/>
		</g>
	</g>
</g>
<path class="st19" d="M41.132,257.298c-17.673,0-32,14.327-32,32c0,17.673,14.327,32,32,32s32-14.327,32-32
	C73.132,271.625,58.805,257.298,41.132,257.298z M38.199,288.05c-0.216,3.523-1.83,8.798-8.291,13.932
	c-0.31,0.244-0.673,0.364-1.035,0.364c-0.506,0-1.004-0.23-1.335-0.67c-0.572-0.755-0.439-1.841,0.3-2.424
	c5.261-4.179,6.701-8.272,6.955-11.081c-0.746,0.419-1.586,0.683-2.496,0.683c-2.838,0-5.135-2.352-5.135-5.254
	c0-2.902,2.301-5.254,5.135-5.254c0.642,0,1.231,0.165,1.792,0.388l-0.017-0.041c0,0,0.248,0.089,0.593,0.278
	c0.017,0.01,0.035,0.014,0.052,0.021c0.01,0.007,0.017,0.014,0.028,0.021c0.237,0.134,0.509,0.313,0.812,0.567
	c0.129,0.11,0.237,0.237,0.356,0.357C37.178,281.175,38.569,283.541,38.199,288.05z M55.101,288.046
	c-0.216,3.523-1.83,8.798-8.291,13.932c-0.31,0.244-0.673,0.364-1.035,0.364c-0.506,0-1.004-0.23-1.335-0.67
	c-0.572-0.755-0.439-1.841,0.3-2.424c5.261-4.179,6.701-8.272,6.956-11.081c-0.743,0.426-1.583,0.687-2.493,0.687
	c-2.838,0-5.135-2.352-5.135-5.254c0-2.902,2.298-5.254,5.135-5.254c0.642,0,1.231,0.165,1.792,0.388l-0.021-0.041
	c0,0,0.248,0.089,0.593,0.278c0.017,0.01,0.035,0.014,0.052,0.021c0.01,0.007,0.017,0.014,0.028,0.021
	c0.237,0.134,0.509,0.313,0.812,0.567c0.129,0.11,0.237,0.237,0.356,0.357C54.08,281.175,55.467,283.541,55.101,288.046z"/>
<g>
	<g class="st11">
		<path d="M53.429,280.531c-0.303-0.254-0.575-0.433-0.812-0.567c-0.01-0.007-0.017-0.014-0.028-0.021
			c-0.017-0.007-0.035-0.01-0.052-0.021c-0.345-0.189-0.593-0.278-0.593-0.278l0.021,0.041c-0.561-0.223-1.151-0.388-1.792-0.388
			c-2.838,0-5.135,2.352-5.135,5.254c0,2.902,2.298,5.254,5.135,5.254c0.91,0,1.75-0.261,2.493-0.687
			c-0.255,2.809-1.694,6.902-6.956,11.081c-0.739,0.584-0.872,1.669-0.3,2.424c0.331,0.44,0.83,0.67,1.335,0.67
			c0.363,0,0.725-0.12,1.035-0.364c6.46-5.134,8.075-10.408,8.291-13.932c0.366-4.505-1.022-6.871-2.287-8.111
			C53.667,280.768,53.558,280.641,53.429,280.531z"/>
	</g>
	<g>
		<path class="st0" d="M52.429,279.531c-0.303-0.254-0.575-0.433-0.812-0.567c-0.01-0.007-0.017-0.014-0.028-0.021
			c-0.017-0.007-0.035-0.01-0.052-0.021c-0.345-0.189-0.593-0.278-0.593-0.278l0.021,0.041c-0.561-0.223-1.151-0.388-1.792-0.388
			c-2.838,0-5.135,2.352-5.135,5.254c0,2.902,2.298,5.254,5.135,5.254c0.91,0,1.75-0.261,2.493-0.687
			c-0.255,2.809-1.694,6.902-6.956,11.081c-0.739,0.584-0.872,1.669-0.3,2.424c0.331,0.44,0.83,0.67,1.335,0.67
			c0.363,0,0.725-0.12,1.035-0.364c6.46-5.134,8.075-10.408,8.291-13.932c0.366-4.505-1.022-6.871-2.287-8.111
			C52.667,279.768,52.558,279.641,52.429,279.531z"/>
	</g>
</g>
<g>
	<g class="st11">
		<path d="M36.527,280.531c-0.303-0.254-0.575-0.433-0.812-0.567c-0.01-0.007-0.017-0.014-0.028-0.021
			c-0.017-0.007-0.035-0.01-0.052-0.021c-0.345-0.189-0.593-0.278-0.593-0.278l0.017,0.041c-0.561-0.223-1.151-0.388-1.792-0.388
			c-2.834,0-5.135,2.352-5.135,5.254c0,2.902,2.298,5.254,5.135,5.254c0.91,0,1.75-0.264,2.496-0.683
			c-0.255,2.809-1.694,6.902-6.955,11.081c-0.739,0.584-0.872,1.669-0.3,2.424c0.331,0.44,0.83,0.67,1.335,0.67
			c0.363,0,0.725-0.12,1.035-0.364c6.46-5.134,8.075-10.408,8.291-13.932c0.37-4.509-1.022-6.875-2.287-8.115
			C36.764,280.768,36.656,280.641,36.527,280.531z"/>
	</g>
	<g>
		<path class="st0" d="M35.527,279.531c-0.303-0.254-0.575-0.433-0.812-0.567c-0.01-0.007-0.017-0.014-0.028-0.021
			c-0.017-0.007-0.035-0.01-0.052-0.021c-0.345-0.189-0.593-0.278-0.593-0.278l0.017,0.041c-0.561-0.223-1.151-0.388-1.792-0.388
			c-2.834,0-5.135,2.352-5.135,5.254c0,2.902,2.298,5.254,5.135,5.254c0.91,0,1.75-0.264,2.496-0.683
			c-0.255,2.809-1.694,6.902-6.955,11.081c-0.739,0.584-0.872,1.669-0.3,2.424c0.331,0.44,0.83,0.67,1.335,0.67
			c0.363,0,0.725-0.12,1.035-0.364c6.46-5.134,8.075-10.408,8.291-13.932c0.37-4.509-1.022-6.875-2.287-8.115
			C35.764,279.768,35.656,279.641,35.527,279.531z"/>
	</g>
</g>
<circle class="st0" cx="41.132" cy="373.298" r="40"/>
<g>
	<defs>
		<path id="SVGID_9_" d="M81.132,373.298c0,22.091-17.909,40-40,40s-40-17.909-40-40s17.909-40,40-40S81.132,351.207,81.132,373.298
			z"/>
	</defs>
	<clipPath id="SVGID_10_">
		<use xlink:href="#SVGID_9_"  style="overflow:visible;"/>
	</clipPath>
	<g class="st20">
		
			<image style="overflow:visible;opacity:0.71;" width="700" height="505" xlink:href="A7F279E.png"  transform="matrix(0.24 0 0 0.24 -40.1402 315.8992)">
		</image>
		<g>
			<path class="st21" d="M-35.64,321.399v108h155v-108H-35.64z M41.132,413.298c-22.091,0-40-17.909-40-40s17.909-40,40-40
				s40,17.909,40,40S63.223,413.298,41.132,413.298z"/>
			<path class="st22" d="M-35.64,321.399v108h155v-108H-35.64z M41.132,413.298c-22.091,0-40-17.909-40-40s17.909-40,40-40
				s40,17.909,40,40S63.223,413.298,41.132,413.298z"/>
		</g>
	</g>
</g>
<path class="st23" d="M41.132,341.899c-17.673,0-32,14.327-32,32s14.327,32,32,32s32-14.327,32-32S58.805,341.899,41.132,341.899z
	 M61.132,361.899v24v4c0,2.209-1.791,4-4,4h-32c-2.209,0-4-1.791-4-4v-4v-24v-4c0-2.209,1.791-4,4-4h32c2.209,0,4,1.791,4,4V361.899
	z"/>
<g>
	<g class="st11">
		<path d="M58.132,354.899h-32c-2.209,0-4,1.791-4,4v4v24v4c0,2.209,1.791,4,4,4h32c2.209,0,4-1.791,4-4v-4v-24v-4
			C62.132,356.69,60.341,354.899,58.132,354.899z M38.132,388.899h-12v-1h12V388.899z M38.132,386.899h-12v-1h12V386.899z
			 M38.132,384.899h-12v-1h12V384.899z M38.132,382.899h-12v-1h12V382.899z M38.132,378.899h-12v-12h12V378.899z M58.132,388.899
			h-16v-1h16V388.899z M58.132,386.899h-16v-1h16V386.899z M58.132,384.899h-16v-1h16V384.899z M58.132,382.899H46.007v-1h12.125
			V382.899z M58.132,379.899h-16v-1h16V379.899z M58.132,377.899h-16v-1h16V377.899z M58.132,375.899h-16v-1h16V375.899z
			 M58.132,373.899h-16v-1h16V373.899z M42.132,370.899v-4h3v4H42.132z M58.132,370.899h-12v-1h12V370.899z M58.132,368.899h-12v-1
			h12V368.899z M58.132,362.899h-32v-4h32V362.899z"/>
	</g>
	<g>
		<path class="st0" d="M57.132,353.899h-32c-2.209,0-4,1.791-4,4v4v24v4c0,2.209,1.791,4,4,4h32c2.209,0,4-1.791,4-4v-4v-24v-4
			C61.132,355.69,59.341,353.899,57.132,353.899z M37.132,387.899h-12v-1h12V387.899z M37.132,385.899h-12v-1h12V385.899z
			 M37.132,383.899h-12v-1h12V383.899z M37.132,381.899h-12v-1h12V381.899z M37.132,377.899h-12v-12h12V377.899z M57.132,387.899
			h-16v-1h16V387.899z M57.132,385.899h-16v-1h16V385.899z M57.132,383.899h-16v-1h16V383.899z M57.132,381.899H45.007v-1h12.125
			V381.899z M57.132,378.899h-16v-1h16V378.899z M57.132,376.899h-16v-1h16V376.899z M57.132,374.899h-16v-1h16V374.899z
			 M57.132,372.899h-16v-1h16V372.899z M41.132,369.899v-4h3v4H41.132z M57.132,369.899h-12v-1h12V369.899z M57.132,367.899h-12v-1
			h12V367.899z M57.132,361.899h-32v-4h32V361.899z"/>
	</g>
</g>
<circle class="st0" cx="33.132" cy="370.08" r="2"/>
<path class="st0" d="M36.132,374.666l-0.785-0.781c-0.487-0.484-1.276-0.484-1.763,0l-0.844,0.839l-1.928-1.917
	c-0.976-0.97-2.559-0.97-3.536,0l-1.145,1.138v3.135h10V374.666z"/>
<g>
	<path class="st24" d="M25.132,378.08h12v-12h-12V378.08z M33.132,368.08c1.105,0,2,0.895,2,2c0,1.104-0.895,2-2,2s-2-0.896-2-2
		C31.132,368.976,32.027,368.08,33.132,368.08z M26.132,373.946l1.145-1.138c0.976-0.97,2.559-0.97,3.536,0l1.928,1.917l0.844-0.839
		c0.487-0.484,1.276-0.484,1.763,0l0.785,0.781v2.414h-10V373.946z"/>
	<rect x="45.132" y="369.08" class="st24" width="12" height="1"/>
	<rect x="45.132" y="367.08" class="st24" width="12" height="1"/>
	<rect x="41.132" y="366.08" class="st24" width="3" height="4"/>
	<rect x="41.132" y="372.08" class="st24" width="16" height="1"/>
	<rect x="41.132" y="374.08" class="st24" width="16" height="1"/>
	<rect x="41.132" y="376.08" class="st24" width="16" height="1"/>
	<rect x="41.132" y="378.08" class="st24" width="16" height="1"/>
	<rect x="45.007" y="381.08" class="st24" width="12.125" height="1"/>
	<rect x="25.132" y="381.08" class="st24" width="12" height="1"/>
	<rect x="25.132" y="383.08" class="st24" width="12" height="1"/>
	<rect x="25.132" y="385.08" class="st24" width="12" height="1"/>
	<rect x="25.132" y="387.08" class="st24" width="12" height="1"/>
	<rect x="41.132" y="383.08" class="st24" width="16" height="1"/>
	<rect x="41.132" y="385.08" class="st24" width="16" height="1"/>
	<rect x="41.132" y="387.08" class="st24" width="16" height="1"/>
	<rect x="25.132" y="358.08" class="st24" width="32" height="4"/>
</g>
<circle class="st0" cx="40.772" cy="457" r="40"/>
<g>
	<defs>
		<path id="SVGID_11_" d="M80.772,457c0,22.091-17.909,40-40,40s-40-17.909-40-40s17.909-40,40-40S80.772,434.909,80.772,457z"/>
	</defs>
	<clipPath id="SVGID_12_">
		<use xlink:href="#SVGID_11_"  style="overflow:visible;"/>
	</clipPath>
	<g class="st25">
		
			<image style="overflow:visible;opacity:0.71;" width="700" height="505" xlink:href="A7F279F.png"  transform="matrix(0.24 0 0 0.24 -40.5 399.6008)">
		</image>
		<g>
			<path class="st26" d="M-36,405.101v108h155v-108H-36z M40.772,497c-22.091,0-40-17.909-40-40s17.909-40,40-40s40,17.909,40,40
				S62.863,497,40.772,497z"/>
			<path class="st27" d="M-36,405.101v108h155v-108H-36z M40.772,497c-22.091,0-40-17.909-40-40s17.909-40,40-40s40,17.909,40,40
				S62.863,497,40.772,497z"/>
		</g>
	</g>
</g>
<circle class="st0" cx="32.772" cy="453.782" r="2"/>
<path class="st0" d="M35.772,458.368l-0.785-0.781c-0.487-0.484-1.276-0.484-1.763,0l-0.844,0.839l-1.928-1.917
	c-0.976-0.97-2.559-0.97-3.536,0l-1.145,1.138v3.135h10V458.368z"/>
<path class="st26" d="M40.772,425c-17.673,0-32,14.327-32,32c0,17.673,14.327,32,32,32s32-14.327,32-32
	C72.772,439.327,58.445,425,40.772,425z M44.443,481.056c0,0,5.642-7.618,0.509-12.529c-7.286-6.971-4.18-11.448-4.18-11.448
	s-17.754,8.685-3.875,23.984c0,0-16.063-2.377-16.063-16.063c0-13.686,21.003-14.991,16.355-31.969c0,0,15.726,4.921,11.887,20.245
	c0,0,2.079-1.328,3.671-3.913c0,0,7.963,6.151,7.963,15.511C60.71,474.235,49.672,481.12,44.443,481.056z"/>
<g>
	<g class="st28">
		<path d="M53.747,450.395c-1.591,2.585-3.671,3.913-3.671,3.913c3.839-15.324-11.887-20.245-11.887-20.245
			c4.648,16.978-16.355,18.283-16.355,31.969c0,13.686,16.063,16.063,16.063,16.063c-13.879-15.3,3.875-23.984,3.875-23.984
			s-3.106,4.477,4.18,11.448c5.133,4.911-0.509,12.529-0.509,12.529c5.229,0.065,16.267-6.82,16.267-16.181
			C61.71,456.546,53.747,450.395,53.747,450.395z"/>
	</g>
	<g>
		<path class="st0" d="M52.747,449.395c-1.591,2.585-3.671,3.913-3.671,3.913c3.839-15.324-11.887-20.245-11.887-20.245
			c4.648,16.978-16.355,18.283-16.355,31.969c0,13.686,16.063,16.063,16.063,16.063c-13.879-15.3,3.875-23.984,3.875-23.984
			s-3.106,4.477,4.18,11.448c5.133,4.911-0.509,12.529-0.509,12.529c5.229,0.065,16.267-6.82,16.267-16.181
			C60.71,455.546,52.747,449.395,52.747,449.395z"/>
	</g>
</g>
</svg>
